<?xml version="1.0" encoding="utf-8"?>
<!-- Generator: Adobe Illustrator 23.1.1, SVG Export Plug-In . SVG Version: 6.00 Build 0)  -->
<svg version="1.1" id="Layer_1" xmlns="http://www.w3.org/2000/svg" xmlns:xlink="http://www.w3.org/1999/xlink" x="0px" y="0px"
	 viewBox="0 0 603.8 165.1" style="enable-background:new 0 0 603.8 165.1;" xml:space="preserve">
<style type="text/css">
	.st0{fill:#F2F2F2;}
</style>
<g>
	<polygon class="st0" points="406.4,85.3 371.2,103 335.9,85.3 307.7,85.3 356.7,110.3 307.7,134.9 337.3,134.9 371.2,117.6 
		405,134.9 434.7,134.9 385.6,110.3 434.7,85.3 	"/>
	<path class="st0" d="M141.9,159.8h15.5v-25H266V85.3H141.9V159.8z M157.4,99.2h93.1v21.2h-93.1V99.2z"/>
	<rect x="278.7" y="85.3" class="st0" width="15.5" height="49.6"/>
	<path class="st0" d="M446.6,134.9h124.2v-14.6H462.1v-4.2h108.6V85.3H446.6V134.9z M462.1,99.2h93.1v4.2h-93.1V99.2z"/>
	<polygon class="st0" points="405,31.2 371.2,48.5 337.3,31.2 307.7,31.2 356.7,55.9 307.7,80.8 335.9,80.8 371.2,63.1 406.4,80.8 
		434.7,80.8 385.6,55.9 434.7,31.2 	"/>
	<polygon class="st0" points="105.9,31.2 53.1,67 20.5,67 20.5,31.2 5,31.2 5,134.9 20.5,134.9 20.5,99.2 53.1,99.2 105.9,134.9 
		131.3,134.9 77.4,99.2 129.2,99.2 129.2,85.3 20.5,85.3 20.5,80.8 129.2,80.8 129.2,67 77.4,67 131.3,31.2 	"/>
	<path class="st0" d="M157.4,6.3h-15.5v74.5H266V31.2H157.4V6.3z M250.5,45.8v21.2h-93.1V45.8C157.4,45.8,250.5,45.8,250.5,45.8z"/>
	<rect x="278.7" y="31.2" class="st0" width="15.5" height="49.6"/>
	<rect x="583.5" y="31.2" class="st0" width="15.5" height="103.6"/>
	<path class="st0" d="M446.6,80.8h124.2V50H462.1v-4.2h108.6V31.2H446.6V80.8z M462.1,62.7h93.1v4.2h-93.1V62.7z"/>
</g>
</svg>
