<?xml version="1.0" encoding="utf-8"?>
<!-- Generator: Adobe Illustrator 23.1.1, SVG Export Plug-In . SVG Version: 6.00 Build 0)  -->
<svg version="1.1" id="Layer_1" xmlns="http://www.w3.org/2000/svg" xmlns:xlink="http://www.w3.org/1999/xlink" x="0px" y="0px"
	 viewBox="0 0 292.8 193.1" style="enable-background:new 0 0 292.8 193.1;" xml:space="preserve">
<style type="text/css">
	.st0{fill:#F2F2F2;}
</style>
<g>
	<path class="st0" d="M80.5,2.7v22.4L28.8,44.2l51.6,19.2v22.2L4.1,56.6V31.7L80.5,2.7z"/>
	<path class="st0" d="M81.1,115.6V93.2l51.6-19.2L81.1,54.9V32.7l76.3,29.1v24.9L81.1,115.6z"/>
</g>
<g>
	<polygon class="st0" points="130,161.1 88.5,161.1 88.5,136.3 80.5,136.3 80.5,169.2 138,169.2 138,136.3 130,136.3 	"/>
	<rect x="142.5" y="136.3" class="st0" width="8" height="32.9"/>
	<rect x="142.5" y="119.6" class="st0" width="8" height="8"/>
	<rect x="155.5" y="119.6" class="st0" width="8" height="8"/>
	<rect x="155.5" y="136.3" class="st0" width="8" height="49.3"/>
	<path class="st0" d="M168.1,136.3v32.9H226v-32.9H168.1z M218,161.1h-41.9v-16.5H218V161.1z"/>
	<path class="st0" d="M231.1,136.3v32.9h57.4v-8.1h-49.4v-5.5h49.4v-19.3H231.1z M281,147.3h-41.9v-2.7H281V147.3z"/>
</g>
</svg>
