<svg id="Layer_1" data-name="Layer 1" xmlns="http://www.w3.org/2000/svg" viewBox="0 0 274.82 286.13"><defs><style>.cls-1{fill:#f2f2f2;}</style></defs><title>logo_yk</title><path class="cls-1" d="M166.5,2,126.33,20.85l2.51,5.89q6.19-2.85,9.3-2.86a8.54,8.54,0,0,1,6.2,2.28q2.37,2.27,3.4,8.24.87,5.07,1,25.13H105.68v6.23c4.23,0,7.18.37,8.86,1.09a7.1,7.1,0,0,1,4.72,7.49A39.57,39.57,0,0,1,116.75,88L86.48,173.16,53.54,95.39q-4.87-11.62-4.87-18.18A11,11,0,0,1,52,69q3.33-3.29,10-3.28h3.1V59.53H2v6.23q7.53,2,10.93,4.71,2.36,2,6.05,7.91a95.73,95.73,0,0,1,7.09,13L74.66,207.66l-9.6,26.77q-5.31,15-10.56,20.2t-9.67,5.22q-1.48,0-7.38-2.53-8.43-3.7-13.3-3.7-7.08,0-11.15,4.29T8.94,269.27a18.22,18.22,0,0,0,5.61,13.13,19.2,19.2,0,0,0,14.33,5.73q12,0,24.88-11.45t20.9-33.83L129.75,89q3.69-10.6,5-13,3.54-5.57,6.5-7.58a18.25,18.25,0,0,1,7.5-2.54V207.53q0,13.64-2.21,19.19a11.68,11.68,0,0,1-4.73,5.73q-5.16,2.87-15.5,2.86v6.06h68.82v-6.06q-11.37-.17-14.77-2.19a12.93,12.93,0,0,1-5.24-6.73q-1.86-4.71-1.85-19.7V2Z" transform="translate(-2 -2)"/><path class="cls-1" d="M264,233.63q-5.31-2.37-12.4-10.27-5-5.56-19.5-26.26l-34.71-50,34.71-36.53q9.6-9.93,17.65-13.8t20.16-4.21V87.18H211.1v5.38q5.61.34,8.05,2.78a7.86,7.86,0,0,1,1.25,9.85q-1.77,3-12.7,14.47l-34.41,35.86L214.79,216q5.91,8.58,5.91,12.46a6.31,6.31,0,0,1-2,5q-2,1.77-7.61,1.94v6.06h65.72v-6.06Q267.65,235.31,264,233.63Z" transform="translate(-2 -2)"/></svg>